# xmcd
#
# Track frame offsets:
#	150
#	12775
#	29130
#	43912
#	57852
#	76790
#	91115
#	107242
#	120035
#	142515
#
# Disc length: 2042 seconds
#
# Revision: 1
# Processed by: cddbd v1.4PL0 Copyright (c) Steve Scherf et al.
# Submitted via: audiograbber 1.82.02
#
DISCID=6d07f80a
DTITLE=Greg McCool - The Long Road Home
DYEAR=1998
DGENRE=Gospel
TTITLE0=Covered In Blood
TTITLE1=The Loser
TTITLE2=I'm Feeling Close To Home
TTITLE3=Standing In The Gap
TTITLE4=You Can Always Come Back Home
TTITLE5=Special Unspoken Request
TTITLE6=Living The Good Life
TTITLE7=The Good News
TTITLE8=Renew Me
TTITLE9=My Worst Days Now
EXTD=
EXTT0=
EXTT1=
EXTT2=
EXTT3=
EXTT4=
EXTT5=
EXTT6=
EXTT7=
EXTT8=
EXTT9=
PLAYORDER=
